<svg width="16" height="16" viewBox="0 0 16 16" fill="none" xmlns="http://www.w3.org/2000/svg">
<path fill-rule="evenodd" clip-rule="evenodd" d="M7.81984 2.47915C7.18098 1.84028 6.14519 1.84028 5.50633 2.47915C4.86747 3.11801 4.86747 4.1538 5.50633 4.79266L6.66309 5.94942L7.81984 4.79266C8.4587 4.1538 8.4587 3.11801 7.81984 2.47915ZM8.0773 7.36364L9.23406 6.20688C10.654 4.78697 10.654 2.48484 9.23406 1.06493C7.81415 -0.354977 5.51202 -0.354977 4.09211 1.06493C2.6722 2.48484 2.6722 4.78697 4.09211 6.20688L5.24887 7.36364L3.71934 8.89317C2.09355 10.519 2.09355 13.1549 3.71934 14.7807C5.34513 16.4064 7.98105 16.4064 9.60683 14.7807L11.1364 13.2511L12.5858 14.7006L14 13.2863L12.5506 11.8369L14 10.3875L12.5858 8.97328L11.1364 10.4227L8.0773 7.36364ZM6.66309 8.77785L5.13355 10.3074C4.28882 11.1521 4.28882 12.5217 5.13355 13.3664C5.97829 14.2112 7.34788 14.2112 8.19262 13.3664L9.72215 11.8369L6.66309 8.77785Z" fill="black"/>
</svg>
