<svg width="16" height="16" viewBox="0 0 16 16" fill="none" xmlns="http://www.w3.org/2000/svg">
<path fill-rule="evenodd" clip-rule="evenodd" d="M8 16C12.4183 16 16 12.4183 16 8C16 3.58172 12.4183 0 8 0C3.58172 0 0 3.58172 0 8C0 12.4183 3.58172 16 8 16ZM9.99999 6C9.99999 7.10457 9.10456 8 7.99999 8C6.89542 8 5.99999 7.10457 5.99999 6C5.99999 4.89543 6.89542 4 7.99999 4C9.10456 4 9.99999 4.89543 9.99999 6ZM6.99999 9C5.63662 9 4.48567 9.90945 4.1207 11.1548C5.03751 12.2808 6.43476 13 7.99999 13C9.56522 13 10.9625 12.2808 11.8793 11.1548C11.5143 9.90945 10.3634 9 8.99999 9H6.99999Z" fill="black"/>
</svg>
