<svg width="16" height="16" viewBox="0 0 16 16" fill="none" xmlns="http://www.w3.org/2000/svg">
<path d="M4.01465 0.991441L5.86241 0.226074L6.62778 2.07383L4.78002 2.8392L4.01465 0.991441Z" fill="black"/>
<path d="M11.22 13.1604L11.9853 15.0081L10.1376 15.7735L9.37222 13.9258L11.22 13.1604Z" fill="black"/>
<path d="M2.83941 11.2198L2.07404 9.37201L0.226281 10.1374L0.991648 11.9851L2.83941 11.2198Z" fill="black"/>
<path d="M15.7737 5.86221L13.926 6.62757L13.1606 4.77981L15.0084 4.01445L15.7737 5.86221Z" fill="black"/>
<path d="M11.6955 6.46906C12.5409 8.51004 11.5717 10.8499 9.53073 11.6953C7.48976 12.5407 5.14988 11.5715 4.30448 9.53053C3.45908 7.48955 4.42829 5.14968 6.46927 4.30428C8.51025 3.45887 10.8501 4.42808 11.6955 6.46906Z" fill="black"/>
<path d="M0.991647 4.01445L0.22628 5.86221L2.07404 6.62757L2.83941 4.77981L0.991647 4.01445Z" fill="black"/>
<path d="M13.926 9.37201L13.1606 11.2198L15.0084 11.9851L15.7737 10.1374L13.926 9.37201Z" fill="black"/>
<path d="M4.78002 13.1604L6.62778 13.9258L5.86241 15.7735L4.01465 15.0081L4.78002 13.1604Z" fill="black"/>
<path d="M11.9853 0.991441L10.1376 0.226075L9.37222 2.07383L11.22 2.8392L11.9853 0.991441Z" fill="black"/>
</svg>
