<svg width="16" height="16" viewBox="0 0 16 16" fill="none" xmlns="http://www.w3.org/2000/svg">
<path fill-rule="evenodd" clip-rule="evenodd" d="M1 1H15V15H1V1ZM13.5 4C13.5 4.82843 12.8284 5.5 12 5.5C11.1716 5.5 10.5 4.82843 10.5 4C10.5 3.17157 11.1716 2.5 12 2.5C12.8284 2.5 13.5 3.17157 13.5 4ZM12 13.5C12.8284 13.5 13.5 12.8284 13.5 12C13.5 11.1716 12.8284 10.5 12 10.5C11.1716 10.5 10.5 11.1716 10.5 12C10.5 12.8284 11.1716 13.5 12 13.5ZM5.5 4C5.5 4.82843 4.82843 5.5 4 5.5C3.17157 5.5 2.5 4.82843 2.5 4C2.5 3.17157 3.17157 2.5 4 2.5C4.82843 2.5 5.5 3.17157 5.5 4ZM4 13.5C4.82843 13.5 5.5 12.8284 5.5 12C5.5 11.1716 4.82843 10.5 4 10.5C3.17157 10.5 2.5 11.1716 2.5 12C2.5 12.8284 3.17157 13.5 4 13.5Z" fill="black"/>
</svg>
