<svg width="16" height="16" viewBox="0 0 16 16" fill="none" xmlns="http://www.w3.org/2000/svg">
<path fill-rule="evenodd" clip-rule="evenodd" d="M8 0C3.58172 0 0 3.58172 0 8C0 12.4183 3.58172 16 8 16C12.4183 16 16 12.4183 16 8C16 3.58172 12.4183 0 8 0ZM7 2.08296C4.4875 2.50448 2.50448 4.4875 2.08296 7H7V2.08296ZM2.08296 9C2.50448 11.5125 4.4875 13.4955 7 13.917V9H2.08296ZM9 13.917C11.5125 13.4955 13.4955 11.5125 13.917 9H9V13.917ZM13.917 7C13.4955 4.4875 11.5125 2.50448 9 2.08296V7H13.917Z" fill="black"/>
</svg>
